/* XPM */
static char *result[] = {
/* columns rows colors chars-per-pixel */
"63 64 256 2 ",
"   c black",
".  c #010101",
"X  c #020202",
"o  c gray1",
"O  c #040404",
"+  c gray2",
"@  c #060606",
"#  c #070707",
"$  c gray3",
"%  c #090909",
"&  c gray4",
"*  c #0B0B0B",
"=  c #0C0C0C",
"-  c gray5",
";  c #0E0E0E",
":  c gray6",
">  c #101010",
",  c #111111",
"<  c gray7",
"1  c #131313",
"2  c gray8",
"3  c #151515",
"4  c #161616",
"5  c gray9",
"6  c #181818",
"7  c #191919",
"8  c gray10",
"9  c #1B1B1B",
"0  c gray11",
"q  c #1D1D1D",
"w  c #1E1E1E",
"e  c gray12",
"r  c #202020",
"t  c gray13",
"y  c #222222",
"u  c #232323",
"i  c gray14",
"p  c #252525",
"a  c gray15",
"s  c #272727",
"d  c #282828",
"f  c gray16",
"g  c #2A2A2A",
"h  c gray17",
"j  c #2C2C2C",
"k  c #2D2D2D",
"l  c gray18",
"z  c #2F2F2F",
"x  c gray19",
"c  c #313131",
"v  c #323232",
"b  c gray20",
"n  c #343434",
"m  c #353535",
"M  c gray21",
"N  c #373737",
"B  c gray22",
"V  c #393939",
"C  c #3A3A3A",
"Z  c gray23",
"A  c #3C3C3C",
"S  c gray24",
"D  c #3E3E3E",
"F  c #3F3F3F",
"G  c gray25",
"H  c #414141",
"J  c gray26",
"K  c #434343",
"L  c #444444",
"P  c gray27",
"I  c #464646",
"U  c gray28",
"Y  c #484848",
"T  c #494949",
"R  c gray29",
"E  c #4B4B4B",
"W  c #4C4C4C",
"Q  c gray30",
"!  c #4E4E4E",
"~  c gray31",
"^  c #505050",
"/  c #515151",
"(  c gray32",
")  c #535353",
"_  c gray33",
"`  c #555555",
"'  c #565656",
"]  c gray34",
"[  c #585858",
"{  c gray35",
"}  c #5A5A5A",
"|  c #5B5B5B",
" . c gray36",
".. c #5D5D5D",
"X. c gray37",
"o. c #5F5F5F",
"O. c #606060",
"+. c gray38",
"@. c #626262",
"#. c gray39",
"$. c #646464",
"%. c #656565",
"&. c gray40",
"*. c #676767",
"=. c #686868",
"-. c DimGray",
";. c #6A6A6A",
":. c gray42",
">. c #6C6C6C",
",. c #6D6D6D",
"<. c gray43",
"1. c #6F6F6F",
"2. c gray44",
"3. c #717171",
"4. c #727272",
"5. c gray45",
"6. c #747474",
"7. c gray46",
"8. c #767676",
"9. c #777777",
"0. c gray47",
"q. c #797979",
"w. c gray48",
"e. c #7B7B7B",
"r. c #7C7C7C",
"t. c gray49",
"y. c #7E7E7E",
"u. c gray50",
"i. c #808080",
"p. c #818181",
"a. c gray51",
"s. c #838383",
"d. c #848484",
"f. c gray52",
"g. c #868686",
"h. c gray53",
"j. c #888888",
"k. c #898989",
"l. c gray54",
"z. c #8B8B8B",
"x. c gray55",
"c. c #8D8D8D",
"v. c #8E8E8E",
"b. c gray56",
"n. c #909090",
"m. c gray57",
"M. c #929292",
"N. c #939393",
"B. c gray58",
"V. c #959595",
"C. c gray59",
"Z. c #979797",
"A. c #989898",
"S. c gray60",
"D. c #9A9A9A",
"F. c #9B9B9B",
"G. c gray61",
"H. c #9D9D9D",
"J. c gray62",
"K. c #9F9F9F",
"L. c #A0A0A0",
"P. c gray63",
"I. c #A2A2A2",
"U. c gray64",
"Y. c #A4A4A4",
"T. c #A5A5A5",
"R. c gray65",
"E. c #A7A7A7",
"W. c gray66",
"Q. c #A9A9A9",
"!. c #AAAAAA",
"~. c gray67",
"^. c #ACACAC",
"/. c gray68",
"(. c #AEAEAE",
"). c #AFAFAF",
"_. c gray69",
"`. c #B1B1B1",
"'. c #B2B2B2",
"]. c gray70",
"[. c #B4B4B4",
"{. c gray71",
"}. c #B6B6B6",
"|. c #B7B7B7",
" X c gray72",
".X c #B9B9B9",
"XX c gray73",
"oX c #BBBBBB",
"OX c #BCBCBC",
"+X c gray74",
"@X c gray",
"#X c gray75",
"$X c #C0C0C0",
"%X c #C1C1C1",
"&X c gray76",
"*X c #C3C3C3",
"=X c gray77",
"-X c #C5C5C5",
";X c #C6C6C6",
":X c gray78",
">X c #C8C8C8",
",X c gray79",
"<X c #CACACA",
"1X c #CBCBCB",
"2X c gray80",
"3X c #CDCDCD",
"4X c #CECECE",
"5X c gray81",
"6X c #D0D0D0",
"7X c gray82",
"8X c #D2D2D2",
"9X c LightGray",
"0X c gray83",
"qX c #D5D5D5",
"wX c gray84",
"eX c #D7D7D7",
"rX c #D8D8D8",
"tX c gray85",
"yX c #DADADA",
"uX c gray86",
"iX c gainsboro",
"pX c #DDDDDD",
"aX c gray87",
"sX c #DFDFDF",
"dX c gray88",
"fX c #E1E1E1",
"gX c #E2E2E2",
"hX c gray89",
"jX c #E4E4E4",
"kX c gray90",
"lX c #E6E6E6",
"zX c #E7E7E7",
"xX c gray91",
"cX c #E9E9E9",
"vX c #EAEAEA",
"bX c gray92",
"nX c #ECECEC",
"mX c gray93",
"MX c #EEEEEE",
"NX c #EFEFEF",
"BX c gray94",
"VX c #F1F1F1",
"CX c gray95",
"ZX c #F3F3F3",
"AX c #F4F4F4",
"SX c gray96",
"DX c #F6F6F6",
"FX c gray97",
"GX c #F8F8F8",
"HX c #F9F9F9",
"JX c gray98",
"KX c #FBFBFB",
"LX c gray99",
"PX c #FDFDFD",
"IX c #FEFEFE",
"UX c white",
/* pixels */
"UXUXUXUXUXUXUXUXUXUXUXUXUXUXUXUXUXUXUXUXUXUXUXUXUXUXUXUXUXUXUXUXUXUXUXUXUXUXUXUXUXUXUXUXUXUXUXUXUXUXUXUXUXUXUXUXUXUXUXUXUXUXUX",
"UXUXUXUXUXUXUXUXUXUXUXUXUXUXUXUXUXUXUXUXUXUXUXUXUXUXUXUXUXUXUXUXUXUXUXUXUXUXUXUXUXUXUXUXUXUXUXUXUXUXUXUXUXUXUXUXUXUXUXUXUXUXUX",
"UXUXUXUXUXUXUXUXUXUXUXUXUXUXUXUXUXIXjXFXUXUXUXUXUXUXUXUXUXUXUXUXUXUXUXUXUXUXUXUXUXUXUXBXdXUXUXUXUXUXUXUXUXUXUXUXUXUXUXUXUXUXUX",
"UXUXUXUXUXUXUXUXUXUXUXUXUXUXUXUXKXB.d [ 1XUXUXUXUXUXUXUXUXUXUXUXUXUXUXUXUXUXUXUXUXPX}.K a K.PXUXUXUXUXUXUXUXUXUXUXUXUXUXUXUXUX",
"UXUXUXUXUXUXUXUXUXUXUXUXUXUXUXUXB.& .   t !.UXUXUXUXUXUXUXUXUXUXUXUXUXUXUXUXUXUXKXb.1   . , Y.UXUXUXUXUXUXUXUXUXUXUXUXUXUXUXUX",
"UXUXUXUXUXUXUXUXUXUXUXUXUXUXUX:Xw t @ o . 5 /.UXUXUXUXUXUXUXUXUXUXUXUXUXUXUXUXIXn.= X O X o i wXUXUXUXUXUXUXUXUXUXUXUXUXUXUXUX",
"UXUXUXUXUXUXUXUXUXUXUXUXUXUXKX..~ yX,.@ o . y >XUXUXUXUXUXUXUXUXUXUXUXUXUXUXUX/.1 X O + ( J.p 4.UXUXUXUXUXUXUXUXUXUXUXUXUXUXUX",
"UXUXUXUXUXUXUXUXUXUXUXUXUXUX0Xg $XUXyX,.+ O . F kXUXUXUXUXUXUXUXUXUXUXUXUXUX7Xd . O X ] 9XUXF.k jXUXUXUXUXUXUXUXUXUXUXUXUXUXUX",
"UXUXUXUXUXUXUXUXUXUXUXUXUXIXV.K lX^.U.NX] X O X $.SXUXUXUXUXUXUXUXUXUXUXUXxXY . O 9 b wX~.qXcXV W.IXUXUXUXUXUXUXUXUXUXUXUXUXUX",
"UXUXUXUXUXUXUXUXUXUXUXUXUXtXF 5.aXS =.UXiXx . o # q.SXUXPXDXNXMXMXAXLXUXcX| o O . _ @XFX;.e.IX2.P fXUXUXUXUXUXUXUXUXUXUXUXUXUX",
"UXUXUXUXUXUXUXUXUXUXUXUXUXoX= m.qX< n MXUXQ.= o o $ } y.| K M v n F ` 7.L O O O $ w.UXzXf / UXY.3 <XUXUXUXUXUXUXUXUXUXUXUXUXUX",
"UXUXUXUXUXUXUXUXUXUXUXUXUXOX& y.XX5 ; @XUXDX^ . O O .       . . .       . O O . n 2XUX(.@ [ yXOX0 -XUXUXUXUXUXUXUXUXUXUXUXUXUX",
"UXUXUXUXUXUXUXUXUXUXUXUXUX@X, [ { < $ +.DXUXL.+ O O O O O O O O O O O O O O O   @.UXvX~   E c.8Xh |.UXUXUXUXUXUXUXUXUXUXUXUXUX",
"UXUXUXUXUXUXUXUXUXUXUXUXDXg.6 N B . 3 } #XUXD.+ O O O O O O O O O O O O O O o * V.SXuX{ O < j.=Xm a.KXUXUXUXUXUXUXUXUXUXUXUXUX",
"UXUXUXUXUXUXUXUXUXUXUXUXIX,.# ; z + o f s.h.u o O O O O O O O O O O O O O O O + 4 F $.7 X 1 ` !.f z.UXUXUXUXUXUXUXUXUXUXUXUXUX",
"UXUXUXUXUXUXUXUXUXUXUXUXUX(.& o $ + O X O X X O O O O O O O O O O O O O O O O O o .   o O o ' 1XU iXUXUXUXUXUXUXUXUXUXUXUXUXUX",
"UXUXUXUXUXUXUXUXUXUXUXUXUXSX..o O O O O O O O O O O O O O O O O O O O O O O O O O O O O O o @.@X<XUXUXUXUXUXUXUXUXUXUXUXUXUXUX",
"UXUXUXUXUXUXUXUXUXUXUXUXUXZXp.$ O O O O O O O O O O O O O O O O O O O O O O O O O O O O O O + h C.NXUXUXUXUXUXUXUXUXUXUXUXUXUX",
"UXUXUXUXUXUXUXUXUXUXUXUXpX%.2 o O O O O O O O O O O O O O O O O O O O O O O O O O O O O O O O . * O.wXUXUXUXUXUXUXUXUXUXUXUXUX",
"UXUXUXUXUXUXUXUXUXUXUXPX&X;.8 o O O O O O o o @ X . o O O O O O O O O o . X O O O O O O O O O O @ i d.ZXUXUXUXUXUXUXUXUXUXUXUX",
"UXUXUXUXUXUXUXUXUXUXUXcX5., o O O O O O O : M -.t.I = o O O O O O O X 5 x i @ o O O O O O O O O o q 3.3XUXUXUXUXUXUXUXUXUXUXUX",
"UXUXUXUXUXUXUXUXUXUXDXL.L # O O O O O O . Z @XBXUXHXj.# o O O O O . h @XzX2XJ.H X . O O o o $ & O O B OXUXUXUXUXUXUXUXUXUXUXUX",
"UXUXUXUXUXUXUXUXUXUXJXG.7 o O O O O O o - H 3.d.n.@XfXH + O O O O 1 T.UXUXGXqX).b.H @ O 3 & 1 m - X t z.VXUXUXUXUXUXUXUXUXUXUX",
"UXUXUXUXUXUXUXUXUXUX<Xn o O O O O O O . ! 5XdX6X;.> s.W.r X O O + ,.ZXUX].-.~.vXUXW.= . y n O S H $ $ >.VXUXUXUXUXUXUXUXUXUXUX",
"UXUXUXUXUXUXUXUXUXIX$XC o O o X @ + X a j.v.] n l # p >Xm . O O 3 }.UX(.3 q K ^ q.a.$.= < L % a +.w * u.fXUXUXUXUXUXUXUXUXUXUX",
"UXUXUXUXUXUXUXUXUXUXn.# O O > K O.:   H DXqXd 3 3 q + a.x . O X l 7XFX| ; 8 F y .XUX4X2 # ' i 8 z. .* $.KXUXUXUXUXUXUXUXUXUXUX",
"UXUXUXUXUXUXUXUXUXBX1.& o O t Q l O X 3 *XaXQ u | s   b 0 o O o 7 6XAX! % o.>.e.LXUXe.o + $.N > } | g t tXUXUXUXUXUXUXUXUXUXUX",
"UXUXUXUXUXUXUXUXUXPXg.O o t q.( . O 5 O C @X>Xz.-. .D & @ O O O X g.VXO.-.i.T.NXNXz., . t /.O.1 D.T.! , m.UXUXUXUXUXUXUXUXUXUX",
"UXUXUXUXUXUXUXUXUXVXD   % S %.7 X T J.8 X F A.eXqXiX0Xg X O O O . Z hXyXUXUXLXkXD.^ $ ; N.GX%X8 R uXZ.V K VXUXUXUXUXUXUXUXUXUX",
"UXUXUXUXUXUXUXUXUXoX; o u b.M.4 3 =.6X8.. : S 3.s.Z.m.< o O O O - w &XxX;X#XI.s.1.L : &.vX[.-Xy.w >XaXM.f |.UXUXUXUXUXUXUXUXUX",
"UXUXUXUXUXUXUXUXIX;.  - 6.jXOX8 $ t.NXuX .% @ < a I < o O O O O % C L.>XX.D u : o n Q.BXZXvX-.c.T 3X0Xx.U @.KXUXUXUXUXUXUXUXUX",
"UXUXUXUXUXUXUXUXuXu o I (.GXM.. 6 `.B.BXCX(.Q & X . o O O O O O @ s I.bXR X $ V r.%XHXIX{.oX}.R C >XHXtXl.g *XUXUXUXUXUXUXUXUX",
"UXUXUXUXUXUXUXUXh.o % -.iXJXO.  c $.~.sXpXHX-X6.5 o O O O O O O O s 0.FXR.$ 1 3.zXUXHXZXAX<.Y.^ 1 D.ZXj.5.....AXUXUXUXUXUXUXUX",
"UXUXUXUXUXUXUXiXf . F ~.I.`..., 7 P tXi.0X&XuXuXq.. O O O O O O + e &.wXnXN M.PXUXUXFXJ.eX$XT #.% X.C.H.-.M 3 s.SXUXUXUXUXUXUX",
"UXUXUXUXUXUXnX..  @ g 8 C X.2.7   -.D.,.;XZ.%X].i.. O O O O o X   j =.wXUXi.2XSXHXJXUX:X| yXP K n .XI # 9 t % w +XUXUXUXUXUXUX",
"UXUXUXUXUXUXwXi. .Q k & = _ (.4 . 0.P h.R.w.L.F._   O O O O 6 M I _ C.|.UX'.>X1XkX XsXuX[ c.+.3 / FXbX4.u N 5.;XJXUXUXUXUXUXUX",
"UXUXUXUXUXUXUXxXi.N 3 = u %.^.u X ' 0 v.l.X.r.a.L   O O o 1 K 3.M._.rX@XGX&X XC.eX@Xu.E.,.I @.. q.p.G.ZXjXBXUXUXUXUXUXUXUXUXUX",
"UXUXUXUXUXUXUXUXAX$Xp.D 5 $.p.A @ e ; a.3.F } @.G   O O 3 ^ a.H.].8XVXmXNX)./. .<XAX) x.Y i D 6 +Xx.> x.UXUXUXUXUXUXUXUXUXUXUX",
"UXUXUXUXUXUXUXUXAXQ.@.L ^ e k ,.% O % :.{ r N m V . O O 0 v k p s ( eXUXzXk.j.a 2XUXw.] Z % 3 T b.=.> b NXUXUXUXUXUXUXUXUXUXUX",
"UXUXUXUXUXUXUXUXUXIXGXFX9Xq 3 ; o O + R J % > ; 8 o O O o . X X X   a.UX,X] T N vXUX~.x K . $ 6.( p 6 N bXUXUXUXUXUXUXUXUXUXUX",
"UXUXUXUXUXUXUXUXUXUXUXUXOX= o o O O O r s O o O O O O O O O O O O   =.UXd.r j XXPXLX,Xu V o X D x o A 1.AXUXUXUXUXUXUXUXUXUXUX",
"UXUXUXUXUXUXUXUXUXUXUXUX).g * O O O O @ & O O O O O O O O O O O O   2.pXf = D.UXzX<XwXr i O o 5 0 : $.#XPXUXUXUXUXUXUXUXUXUXUX",
"UXUXUXUXUXUXUXUXUXUXUXUX%X%.* O O O O O O O O O O O O O O O O O O O u. .$ j.LXUXsXN.7X7 ; O O O y [ W.IXUXUXUXUXUXUXUXUXUXUXUX",
"UXUXUXUXUXUXUXUXUXUXUXUXbXK.a 5 o O O O O O O O O O o O O O O O O % g < k.HXPXPXeX4..X- o O O . G _.cXUXUXUXUXUXUXUXUXUXUXUXUX",
"UXUXUXUXUXUXUXUXUXUXUXUXUX3X*.m   O O O O O O O O O ; O X X X . .   q K.LXUXyXiXOX+.b.o O O O u c.LXUXUXUXUXUXUXUXUXUXUXUXUXUX",
"UXUXUXUXUXUXUXUXUXUXUXUXUXmX'.| , @ O O O O O O O @  .[ x f q k M  .>XUXUXLX'.oXl.[ )   o % 9 p.fXUXUXUXUXUXUXUXUXUXUXUXUXUXUX",
"UXUXUXUXUXUXUXUXUXUXUXUXUXIXFXH.( 4 o O O O O O O = { E.b.W.Y.tXbXKXUXsXNXFXm.S.Y I 9 X $ O.u.nXUXUXUXUXUXUXUXUXUXUXUXUXUXUXUX",
"UXUXUXUXUXUXUXUXUXUXUXUXUXUXUXfXD.R . o O O O O O * G a.H.k.3XI.LXUXGXL.VXjX1.} 1 6 + O :.6XpXUXUXUXUXUXUXUXUXUXUXUXUXUXUXUXUX",
"UXUXUXUXUXUXUXUXUXUXUXUXUXUXUXIXbX(.C Z X O O O O + u @.S.j.P.a.UXUX#XC.UX[.Q 8 o o X  .MXPXUXUXUXUXUXUXUXUXUXUXUXUXUXUXUXUXUX",
"UXUXUXUXUXUXUXUXUXUXUXUXUXUXUXUXUXHXZ. X/ X O O O o ; S i.l.%.l.UXAX,.8XLXX.u @ o o { vXUXUXUXUXUXUXUXUXUXUXUXUXUXUXUXUXUXUXUX",
"UXUXUXUXUXUXUXUXUXUXUXUXUXUXUXUXUXUXBXjXzX( X O O O + > ` 3.H x.UX).,.UX).> @ o o } vXUXUXUXUXUXUXUXUXUXUXUXUXUXUXUXUXUXUXUXUX",
"UXUXUXUXUXUXUXUXUXUXUXUXUXUXUXUXUXUXUXUXUXlX! . O O O O q H j k.KX} {.gXb . o O @.mXUXUXUXUXUXUXUXUXUXUXUXUXUXUXUXUXUXUXUXUXUX",
"UXUXUXUXUXUXUXUXUXUXUXUXUXUXUXUXUXUXUXUXUXUXaXA . O O O O , : e.>XL fX+.X o + -.BXUXUXUXUXUXUXUXUXUXUXUXUXUXUXUXUXUXUXUXUXUXUX",
"UXUXUXUXUXUXUXUXUXUXUXUXUXUXUXUXUXUXUXUXUXUXUX<Xi X O O O O   O.i.:.D.% o @ :.CXUXUXUXUXUXUXUXUXUXUXUXUXUXUXUXUXUXUXUXUXUXUXUX",
"UXUXUXUXUXUXUXUXUXUXUXUXUXUXUXUXUXUXUXUXUXUXUXUXU.- o o O O . n K 0.k . # 4.ZXUXUXUXUXUXUXUXUXUXUXUXUXUXUXUXUXUXUXUXUXUXUXUXUX",
"UXUXUXUXUXUXUXUXUXUXUXUXUXUXUXUXUXUXUXUXUXUXUXUXJX-.+ 8 O O O * 7 H + # 5.SXUXUXUXUXUXUXUXUXUXUXUXUXUXUXUXUXUXUXUXUXUXUXUXUXUX",
"UXUXUXUXUXUXUXUXUXUXUXUXUXUXUXUXUXUXUXUXUXUXUXUXUXpXh ) R X O o # = o -.SXUXUXUXUXUXUXUXUXUXUXUXUXUXUXUXUXUXUXUXUXUXUXUXUXUXUX",
"UXUXUXUXUXUXUXUXUXUXUXUXUXUXUXUXUXUXUXUXUXUXUXUXUXUXV.D 5XD . O O . c hXUXUXUXUXUXUXUXUXUXUXUXUXUXUXUXUXUXUXUXUXUXUXUXUXUXUXUX",
"UXUXUXUXUXUXUXUXUXUXUXUXUXUXUXUXUXUXUXUXUXUXUXUXUXUXnX[ iX3Xu X O o z.UXUXUXUXUXUXUXUXUXUXUXUXUXUXUXUXUXUXUXUXUXUXUXUXUXUXUXUX",
"UXUXUXUXUXUXUXUXUXUXUXUXUXUXUXUXUXUXUXUXUXUXUXUXUXUXUX'.qXUXS.$ + q 7XUXUXUXUXUXUXUXUXUXUXUXUXUXUXUXUXUXUXUXUXUXUXUXUXUXUXUXUX",
"UXUXUXUXUXUXUXUXUXUXUXUXUXUXUXUXUXUXUXUXUXUXUXUXUXUXUXFXFXUXCXL B <.ZXUXUXUXUXUXUXUXUXUXUXUXUXUXUXUXUXUXUXUXUXUXUXUXUXUXUXUXUX",
"UXUXUXUXUXUXUXUXUXUXUXUXUXUXUXUXUXUXUXUXUXUXUXUXUXUXUXUXUXUXUXE.P.<XIXUXUXUXUXUXUXUXUXUXUXUXUXUXUXUXUXUXUXUXUXUXUXUXUXUXUXUXUX",
"UXUXUXUXUXUXUXUXUXUXUXUXUXUXUXUXUXUXUXUXUXUXUXUXUXUXUXUXUXUXUXZXZXUXUXUXUXUXUXUXUXUXUXUXUXUXUXUXUXUXUXUXUXUXUXUXUXUXUXUXUXUXUX",
"UXUXUXUXUXUXUXUXUXUXUXUXUXUXUXUXUXUXUXUXUXUXUXUXUXUXUXUXUXUXUXUXUXUXUXUXUXUXUXUXUXUXUXUXUXUXUXUXUXUXUXUXUXUXUXUXUXUXUXUXUXUXUX"
};
