/* XPM */
static char *fa53e3f58d17488dec4a33b4ca0cd64fJCuoJRSQMtGxwS3V[] = {
/* columns rows colors chars-per-pixel */
"64 50 204 2 ",
"   c None",
".  c #100D0C",
"X  c #14100F",
"o  c #161210",
"O  c #1A1513",
"+  c #0E0C0B",
"@  c #211A17",
"#  c #251D1A",
"$  c #2B1F19",
"%  c #34221B",
"&  c #40261D",
"*  c #5A3729",
"=  c #4C2F24",
"-  c #603F31",
";  c #684332",
":  c #784F3D",
">  c #79584A",
",  c #775F53",
"<  c #796155",
"1  c #7D6559",
"2  c #8E121C",
"3  c #91141E",
"4  c #971A22",
"5  c #882827",
"6  c #9A2627",
"7  c #8C3228",
"8  c #8C3931",
"9  c #A52529",
"0  c #A32C2C",
"q  c #A5262A",
"w  c #AD2D31",
"e  c #AD3031",
"r  c #B63937",
"t  c #AA302F",
"y  c #99493F",
"u  c #AD4335",
"i  c #B6463A",
"p  c #B5593E",
"a  c #875B47",
"s  c #B94D41",
"d  c #A95E45",
"f  c #BC5A43",
"g  c #BE5444",
"h  c #826A5E",
"j  c #876759",
"k  c #946957",
"l  c #AC6349",
"z  c #BC6345",
"x  c #BA6749",
"c  c #A76B55",
"v  c #B56B53",
"b  c #BC7458",
"n  c #A37059",
"m  c #866D62",
"M  c #8A6E62",
"N  c #8A7266",
"B  c #8D7569",
"V  c #8F796E",
"C  c #917A6D",
"Z  c #917567",
"A  c #947D71",
"S  c #AE7C68",
"D  c #B87A63",
"F  c #C45E49",
"G  c #C16342",
"H  c #C1644D",
"J  c #C3694E",
"K  c #C8704E",
"L  c #C56C52",
"P  c #C26750",
"I  c #C67B5B",
"U  c #CA7C5A",
"Y  c #C57455",
"T  c #C87B65",
"R  c #CB7872",
"E  c #C96F6C",
"W  c #978075",
"Q  c #9A8276",
"!  c #9C867B",
"~  c #9E897E",
"^  c #B8856E",
"/  c #A38A7E",
"(  c #AB8371",
")  c #B88B77",
"_  c #D0815D",
"`  c #CD815E",
"'  c #CB8363",
"]  c #C48A6C",
"[  c #C68568",
"{  c #D28A69",
"}  c #CA8D72",
"|  c #CB947A",
" . c #D2977A",
".. c #DA9C7A",
"X. c #D69674",
"o. c #D0887F",
"O. c #7A8083",
"+. c #9F8A80",
"@. c #989C9C",
"#. c #A48E83",
"$. c #A59186",
"%. c #AB9285",
"&. c #AB958B",
"*. c #AD988E",
"=. c #A7938A",
"-. c #BC9384",
";. c #B39789",
":. c #AE9B92",
">. c #B39E94",
",. c #B6A196",
"<. c #BAA396",
"1. c #B5A39A",
"2. c #BAA69C",
"3. c #BCA99E",
"4. c #BDABA2",
"5. c #BCABA5",
"6. c #B5B5B1",
"7. c #CE9B84",
"8. c #C49D8B",
"9. c #C29884",
"0. c #D29A88",
"q. c #D2A186",
"w. c #DCA284",
"e. c #DBA689",
"r. c #D4A68C",
"t. c #C4A99D",
"y. c #C9A999",
"u. c #D5A992",
"i. c #D4AD9A",
"p. c #DAAB92",
"a. c #D9B29C",
"s. c #E3AA89",
"d. c #E2AE90",
"f. c #E5B69A",
"g. c #EABB9E",
"h. c #E8B697",
"j. c #C1AEA4",
"k. c #C5B3AB",
"l. c #C9B7AE",
"z. c #C7B4AB",
"x. c #CBBBB4",
"c. c #CDBEB8",
"v. c #C7B8B2",
"b. c #D2BDB3",
"n. c #EABDA5",
"m. c #E6BAA5",
"M. c #CDC1BA",
"N. c #D2C2BC",
"B. c #DBC3B9",
"V. c #EDC4AC",
"C. c #EEC2A6",
"Z. c #ECC9B3",
"A. c #EDCEBC",
"S. c #E6C6B5",
"D. c #F2CBB4",
"F. c #F1CEBA",
"G. c #F4D3BD",
"H. c #FAD1BE",
"J. c #ECCCB4",
"K. c #D4C6C1",
"L. c #D6C9C4",
"P. c #D9CBC5",
"I. c #DBCEC9",
"U. c #D7CDC8",
"Y. c #DED1CD",
"T. c #DFD2C6",
"R. c #DED4D1",
"E. c #CAC9C4",
"W. c #E2CDC6",
"Q. c #E1D3CE",
"!. c #E8D6C7",
"~. c #F5D6C3",
"^. c #F5D9C5",
"/. c #F9DAC6",
"(. c #F5DBCA",
"). c #FADDCA",
"_. c #F9D3C1",
"`. c #E1D5D2",
"'. c #E4D9D6",
"]. c #E6DCDA",
"[. c #E8DFDC",
"{. c #F3DED2",
"}. c #FBE1CD",
"|. c #E7E1DE",
" X c #E9E1DE",
".X c #F4E1D4",
"XX c #FBE5D4",
"oX c #FBE6DA",
"OX c #FDEADA",
"+X c #FDE9D7",
"@X c #ECE5E3",
"#X c #EFE8E6",
"$X c #EFE9E8",
"%X c #F0E9E7",
"&X c #FDEEE2",
"*X c #F2ECEB",
"=X c #F4F0EF",
"-X c #FEF1E7",
";X c #F5EFF0",
":X c #F6F2F2",
">X c #F8F5F5",
",X c #FAF7F8",
"<X c #FEFEFE",
"1X c #FBFAFB",
/* pixels */
"                                                                                                                                ",
"                                                                                                                                ",
"                                                                                                                                ",
"                                        K.I.Y.K.v.                                                                              ",
"                                    l.R.$X*X:X*X%X`.j./                                                                         ",
"                                  1.Y.=X:X:X1X1X>X$XL.&.>.`.'.Q.W.B.b.b.                                                        ",
"              U L H H L U U z   / l.|.=X,X1X1X1X>X%XI.<.z.W.0.T T Y L T i.$X>X>X$X@X$X@X@X@XR.R.R.                              ",
"              U F w 9 4 6 u z x ( ,.Y.=X:X1X1X1X:X@Xc.%.) Y p i 0 9 6 e s 0.:X1X,X<X1X1X<X,X>X1X>X|.[.U.                        ",
"                H r 9 3 3 3 6 J ] ;.l.'.|.-X:X=X|.B.y.| U f 9 3 2 2 2 3 w s 0.%X1X<X<X<X1X<X<X,X>X$X@X@X'.K.                    ",
"                L J i t 9 0 i T ..r.y.M.B.|.Y.!.A.V.g.s.X.H 6 3 3 3 4 9 w r F 7.%X1X1X<X>XR.@X@X:X:X|.|.*X Xv.                  ",
"                  Y I L J K _ } | D.^.^.^.!.A.XXXX}.^.C.X.' F w 9 9 q e r H T 9.I.R.].`.U.c.v.c.:X=X$X@X*X`.N.3.                ",
"                              Q 8..XXXXX+X+XOXOX+XOXXXG.7.) D f i i F J T ] t.`.R.R.].[.*X>X*XN.R.M.T.=X=X].k.x.4.              ",
"                              >.i.XXE.T.OXOXOXXXT.!.OX}.u.k.x.t.9.-.8.j.b.Y.$X;X;X$X$X@X;X,X>X'.5.4.4.k.U.I.c.l.l.,.            ",
"                            4.;.S.(.O.M.+XOXOX}.@.6.OX}.a.K.>X;X;X*X*X;X;X;X>X,X1X;X*X@X*X>X,X$X'.`.I.5.1.v.N.x.j.j.            ",
"                            5.;.D.D.t.A.XXOXOX}.3.j.G.).a.K.>X:X>X>X>X>X,X>X1X1X1X1X;X$X%X;X,X].`.'.R.R.P.c.N.N.j.5.&.          ",
"                          v.j.8./.}.}.}.+X&X+X}.)._./.}.a.c.:X>X>X>X>X1X1X,X1X1X1X,X;X@X@X@X>X].N.`.Y.Y.I.L.B.N.v.j.&.          ",
"                          N.<.q.).OX+X^.OX-XOX).XX+XOX).p.c.>X,X1X1X1X1X1X1X1X1X,X;X*X$X@X$X$XK.K.Q.L.Y.U.L.K.c.l.l.,.          ",
"                        1.N.>.7.G.XX).V..XOXXXZ.^.XXXXD.0.N.>X>X1X1X1X1X1X1X1X1X;XR.$X[.'.@X'.Y.'.`.P.Q.R.T.K.x.j.l.j.          ",
"                        2.K.2.^ g._.G.R R R E R G.f.g.h.9.Q.=X>X1X1X1X1X1X1X1X1X;XK.@X'.U.@X X[.].`.Q.R.%XoX`.N.j.z.j.*.        ",
"                        k.L.x.( ..h.V.m.0.E 0.A.G.} w...j.%XI.%X1X1X1X1X1X1X,X,XR.L.$X|.U.|.[.].'.`.`.[.%X%X X'.l.k.j.&.        ",
"                        N.Y.Y.2.b ' n._.F.F.).D.S b 0.>.'.;X6.R.>X1X1X1X,X,X,X|.U.$X$X@X|. X].].'.`.`.%X%X%X@X].c.j.3.,.        ",
"                      k.K.@X[.I.k.D X.h.g.d.o.d 7 R <.`.*X*Xk.I.>X;X,X1X,X,X1XR.].*X@X@X@X[.].].`.Q.'.%X%X@X X[.Y.k.1.*.        ",
"                      k.M.'.@XN.L.5.S d 8 5 5 5 v t.'.*X*X'.5.R.;X;X:X>X>X;X|.L.$X;X;X@X@X[.].'.`.Q.[.$X@X@X X X].x.,.%.        ",
"                      l.k.I.@X5.x.`.l.c 7 5 u f -.'.;X;X$Xc.v.@X;X;X;X*X$X|.'.@X*X>X>X;X%X[.'.'.I.Q.$X%X@X X X[.].M.2./ 1       ",
"                    3.l.z.I.[.:.5.Y.Y.j.S b b -.K.$X1X1X].5.R.;X$X*X*X%X*X$X$X$X=X>X>X>X:X X'.P.:.U.*X#X X X|.|.Q.z.t.&.<       ",
"                    1.k.z.N.K.z.5.I.].%X`.N.P.@X$X>X,X,XL.K.@X$X$X$X$X].[.%X@X@X=X>X>X=X=X].Q.,.~ Y.#X@XoX|.].!.M.t.3.&.<       ",
"                    >.z.x.v.,.x.,.l.[.:X:X*X=X>X>X>X>X$XK.|.@X@X@X%X%X[.I.$X@X`.%X>X:X:X*X'.N.! ~ x.@X X@X|. XM.t.t.2.Q <       ",
"                    *.z.x.5.! c.L.l.P.@X:X:X:X>X>X>X;XR.R.'.@X@X@X@X].'.I.[.[.K.@X:X:X=X=X'.c.W ~ v.P.'.|.[.'.l.1.2.2.Q >       ",
"                    %.j.l.2.$.R.@XY.P.'.*X#X*X:X:X*X@X].I.R. X X|.@X[.5.K.].].L.@X=X:X=X@XU.x.W >.L.N.[.|.].'.x.<.>.2./ <       ",
"                      >.k.2.$.'.$X'.N.P.Y.Y.[.@X[.].].`.P.[.@X[.|.|.|.v.5.'.'.L.].*X=X*X].K.1.B ,.N.N.Y.'.!.`.x.<.>.>.Q <       ",
"                      #.j.>.B N.@X[.v.l.P.T.Y.N.K.`.I.L.].*X:X@X'.].[.L.:.R.'.L.'.*X%X'.I.M.$.B ~ l.c.l.M.z.l.t.<.>.;.m         ",
"                        >.2.A x.@X@XP.c.N.I.N.*.N.Y.I.`.$X;X*X].N.'.*XI.=.L.L.K.`.@X XP.L.M.4.V B *.x.l.j.4.4.2.>.%.#.1         ",
"                          1.! v. X X X@X'.P.5.$.T.].|.%X=X=X@XQ.N.].*Xv.$.L.N.L.Q.Y.I.c.N.L.M.! Z 3.v.z.2.:.2.<.;.%.C           ",
"                          *.&.*.T. X@X@X@XU.*.:.Q.%X%X=X*X*X XY.R. X*X2.$.I.L.I.I.I.N.l.B.N.N.*.h &.z.j.t.,.<.>.&.W <           ",
"                            %.W 3.T. X X[.c.~ l. X%X%X*X%X].Y.Q.[.$X@X:.$.I.].`.].Y.l.c.N.M.x.k.A N $.<.>.<.%.Z j k l           ",
"                            ^ c N +.5.l.1./ Q l.].'.`. X|.N.L.`.$X[.I.#.2.'.@X@X XP.b.c.c.x.l.l.2.C h m h N j k x _ ` p         ",
"                      A.m.w.{ G d j N B C Z A #.>.=.1.x.4.4.Y. X@XI.5.A K.@X@X`.L.c.b.x.l.l.j.1.&.V h     u.a.0.K x x           ",
"                W.(.(.n...I           m N B V V C C C >.j.I.@X X@Xv.N #.R.].Y.N.c.x.k.&.! W C N       A.^.~.n.{ z               ",
"            S..XXXZ.e.                        j Z B Z &.c.`. X].K.+.V j.'.L.>.*.,.4.3.#.M h     Z.{.XX~.Z.p.[                   ",
"          u.oXoXf.                          ..I b x v k ! >.2.>.A m $.#.#.:.A m N B C         Z.oXoXV.e. .                      ",
"        O a 7.e.[                   .X.X^.n...U K G G d     M                               n n.F.f.]                           ",
"      O o O % =                 XXOXOX~.f.X.Y z                                           O % > a -                             ",
"    O O O # O               .X-X-X+XD.s.X.                                              O O O # O +                             ",
"      . # # O             m.&X&XoXZ. .                                                  O o # # @ .                             ",
"                        * } n.C.d.]                                                         #                                   ",
"                      O @ & ; ; * $                                                                                             ",
"                      @ . O O O .                                                                                               ",
"                      O o $ $ # X                                                                                               ",
"                      . O # @ O                                                                                                 ",
"                                                                                                                                "
};
