/* XPM */
static char *result[] = {
/* columns rows colors chars-per-pixel */
"64 64 173 2 ",
"   c #000000",
".  c #0F0000",
"X  c #080807",
"o  c #070708",
"O  c #070A0D",
"+  c #0B0B0C",
"@  c #110000",
"#  c #1C0000",
"$  c #1A0E0E",
"%  c #0B0D11",
"&  c #0D1116",
"*  c #0D121A",
"=  c #131314",
"-  c #13161A",
";  c #16191B",
":  c #1B1B1C",
">  c #2A0000",
",  c #350000",
"<  c #3C0000",
"1  c #141A21",
"2  c #1C1F22",
"3  c #1E2229",
"4  c #1D2632",
"5  c #232324",
"6  c #222628",
"7  c #27292D",
"8  c #2B2C2C",
"9  c #31302F",
"0  c #232A35",
"q  c #2E2F31",
"w  c #272F3B",
"e  c #2D3036",
"r  c #333435",
"t  c #373738",
"y  c #36383B",
"u  c #3B3C3D",
"i  c #3B3539",
"p  c #430000",
"a  c #511111",
"s  c #6E0000",
"d  c #720000",
"f  c #7C0000",
"g  c #770D0D",
"h  c #64353B",
"j  c #42403F",
"k  c #2D3645",
"l  c #3E3F40",
"z  c #303B4B",
"x  c #3F4043",
"c  c #37404B",
"v  c #3F4851",
"b  c #3C4C63",
"n  c #424344",
"m  c #44464B",
"M  c #46494C",
"N  c #4A4B4D",
"B  c #48474B",
"V  c #55504F",
"C  c #585848",
"Z  c #444A53",
"A  c #4C4D52",
"S  c #464E5A",
"D  c #4C5153",
"F  c #4C535A",
"G  c #545556",
"H  c #5C5B53",
"J  c #51545A",
"K  c #575858",
"L  c #5C5C5D",
"P  c #5D5456",
"I  c #635D53",
"U  c #625F5F",
"Y  c #75575A",
"T  c #64625C",
"R  c #636157",
"E  c #445265",
"W  c #4A5665",
"Q  c #5D5E61",
"!  c #565969",
"~  c #435A7A",
"^  c #5E6265",
"/  c #5A6C71",
"(  c #646363",
")  c #686563",
"_  c #6E6B64",
"`  c #64656A",
"'  c #666A6C",
"]  c #6B6B6C",
"[  c #706F6F",
"{  c #7A6A6E",
"}  c #71706F",
"|  c #6C6E73",
" . c #666D76",
".. c #6F7072",
"X. c #6C727B",
"o. c #737374",
"O. c #7A7774",
"+. c #74777B",
"@. c #75787C",
"#. c #7B7B7C",
"$. c #7A7879",
"%. c #840000",
"&. c #8B0000",
"*. c #930000",
"=. c #990202",
"-. c #A30000",
";. c #A6090A",
":. c #94797B",
">. c #82817F",
",. c #4C6487",
"<. c #547195",
"1. c #5A7495",
"2. c #55749C",
"3. c #617281",
"4. c #6D7683",
"5. c #607288",
"6. c #6C7B8D",
"7. c #687989",
"8. c #627B97",
"9. c #6C7E93",
"0. c #687F9A",
"q. c #637C9D",
"w. c #5475A1",
"e. c #567CAF",
"r. c #5A7EAE",
"t. c #7E8184",
"y. c #6A809B",
"u. c #70859F",
"i. c #5A81B1",
"p. c #688BAF",
"a. c #6885AB",
"s. c #758DAA",
"d. c #6287BA",
"f. c #7393BC",
"g. c #838384",
"h. c #848688",
"j. c #85888A",
"k. c #8B8C8D",
"l. c #8D8F90",
"z. c #89929B",
"x. c #929494",
"c. c #969798",
"v. c #97989A",
"b. c #9A9B9D",
"n. c #8A9BAA",
"m. c #9D9FA0",
"M. c #939AA0",
"N. c #9BA2A6",
"B. c #A2A3A4",
"V. c #A7A8A9",
"C. c #ABACAD",
"Z. c #B0AFAF",
"A. c #AEAFB0",
"S. c #AFB3B2",
"D. c #A0B0BF",
"F. c #BABCBD",
"G. c #B6B3B5",
"H. c #D0B8BD",
"J. c #839FC4",
"K. c #8CA5C3",
"L. c #86A6D0",
"P. c #91AFD5",
"I. c #A4B6C5",
"U. c #BEBFC0",
"Y. c #BBC5CB",
"T. c #B1D4F2",
"R. c #C6C7C7",
"E. c #C4C6C9",
"W. c #C6CACD",
"Q. c #CED0D3",
"!. c #D5DADC",
"~. c #E7F2F7",
"^. c None",
/* pixels */
"^.^.^.^.^.^.^.^.^.^.^.^.^.^.^.^.^.^.^.^.^.^.^.^.^.^.^.^.^.^.^.^.^.^.^.^.^.^.^.^.^.^.^.^.^.^.^.^.^.^.^.^.^.^.^.^.^.^.^.^.^.^.^.^.",
"^.^.^.^.^.^.^.^.^.^.^.^.^.^.^.^.^.^.^.^.^.^.^.^.^.^.^.^.^.^.^.^.^.^.^.^.^.^.^.^.^.^.^.^.^.^.^.^.^.^.^.^.^.^.^.^.^.^.^.^.^.^.^.^.",
"^.^.^.^.^.^.^.^.^.^.^.^.^.^.^.^.^.^.^.^.^.^.^.^.^.^.^.^.^.^.^.^.^.^.^.^.^.^.^.^.^.^.^.^.^.^.^.^.^.^.^.^.^.^.^.^.^.^.^.^.^.^.^.^.",
"^.^.^.^.^.^.^.^.^.^.^.^.^.^.^.^.^.^.^.^.^.^.^.^.^.^.^.^.^.^.^.^.^.^.^.^.^.^.^.^.^.^.^.^.^.^.^.^.^.^.^.^.^.^.^.^.^.^.^.^.^.^.^.^.",
"^.^.^.^.^.^.^.^.^.^.^.^.^.^.^.^.^.^.^.^.^.^.^.^.^.^.^.^.^.^.^.^.^.^.^.^.^.^.^.^.^.^.^.^.^.^.^.^.^.^.^.^.^.^.^.^.^.^.^.^.^.^.^.^.",
"^.^.^.^.^.^.^.^.^.^.^.^.^.^.^.^.^.^.^.^.^.^.^.^.^.^.^.^.^.^.^.^.^.^.^.^.^.^.^.^.^.^.^.^.^.^.^.^.^.^.^.^.^.^.^.^.^.^.^.^.^.^.^.^.",
"^.^.^.^.^.^.^.^.^.^.^.^.^.^.^.^.^.^.^.^.^.^.^.^.^.^.^.^.^.^.^.^.^.^.^.^.^.^.^.^.^.^.^.^.^.^.^.^.^.^.^.^.^.^.^.^.^.^.^.^.^.^.^.^.",
"^.^.^.^.^.^.^.^.^.^.^.^.^.^.^.^.^.^.^.^.^.^.^.^.^.^.^.^.^.e.e.r.i.d.d.^.^.^.^.^.^.^.^.^.^.^.^.^.^.^.^.^.^.^.^.^.^.^.^.^.^.^.^.^.",
"^.^.^.^.^.^.^.^.^.^.^.^.^.^.^.^.^.^.^.^.^.^.^.^.^.w.3.` ( J A u k m m ( ] 6.f.^.^.^.^.^.^.^.^.^.^.^.^.^.^.^.^.^.^.^.^.^.^.^.^.^.",
"^.^.^.^.^.^.^.^.^.^.^.^.^.^.^.^.^.^.^.^.^.^.w. .Q ( u B.      8         ] y Q ^ 4.L.^.^.^.^.^.^.^.^.^.^.^.^.^.^.^.^.^.^.^.^.^.^.",
"^.^.^.^.^.^.^.^.^.^.^.^.^.^.^.^.^.^.^.^.w.' 0 +       : % % + X o + + = +       u e | P.^.^.^.^.^.^.^.^.^.^.^.^.^.^.^.^.^.^.^.^.",
"^.^.^.^.^.^.^.^.^.^.^.^.^.^.^.^.^.^.i. .A     j + +   i X     6       n o   + + :   - J 4.T.^.^.^.^.^.^.^.^.^.^.^.^.^.^.^.^.^.^.",
"^.^.^.^.^.^.^.^.^.^.^.^.^.^.^.^.^.q.Q r     + o       % 8     5       b.      m   =     g.^ I.^.^.^.^.^.^.^.^.^.^.^.^.^.^.^.^.^.",
"^.^.^.^.^.^.^.^.^.^.^.^.^.^.^.^.4.m + ] %       ]       $.    +       F.      $.      = : + M z.^.^.^.^.^.^.^.^.^.^.^.^.^.^.^.^.",
"^.^.^.^.^.^.^.^.^.^.^.^.^.^.^.X.6     + x.      K                           + +       k.o o   ; j.^.^.^.^.^.^.^.^.^.^.^.^.^.^.^.",
"^.^.^.^.^.^.^.^.^.^.^.^.^.^.X.;   +     8 r           x.K c.m     n B.K h.          A.      + G - j.^.^.^.^.^.^.^.^.^.^.^.^.^.^.",
"^.^.^.^.^.^.^.^.^.^.^.^.^.4.&   =         B.          c.] 9 x.      L k.;           5       : +   x M.^.^.^.^.^.^.^.^.^.^.^.^.^.",
"^.^.^.^.^.^.^.^.^.^.^.^.u.Z   +   h.                  h.g.l.o.    + o r b.  8 x.8 x.      r ;   +   4.Y.^.^.^.^.^.^.^.^.^.^.^.^.",
"^.^.^.^.^.^.^.^.^.^.^.p.` o         g.    ( 6 k.L                           r b.@.+ o   X :       o n $.~.^.^.^.^.^.^.^.^.^.^.^.",
"^.^.^.^.^.^.^.^.^.^.^...r l.+             5 t x.r       B   l N x :   r     x g.r k.              - i 8 j.^.^.^.^.^.^.^.^.^.^.^.",
"^.^.^.^.^.^.^.^.^.^.7.A   = B k.          5 L ; ^       H.% Z.x.r ( r N.                      = F.o =   N !.^.^.^.^.^.^.^.^.^.^.",
"^.^.^.^.^.^.^.^.^.^.|         o B.                      x.V.V.x.  (   b.              j.n h.n 8           g.^.^.^.^.^.^.^.^.^.^.",
"^.^.^.^.^.^.^.^.^./ 8   %           C.n v.              O O + +   o   +               l.v.& g.        = j N !.^.^.^.^.^.^.^.^.^.",
"^.^.^.^.^.^.^.^.^.]   8 2         ( k.k.;                                             v.8 b.8       Q 6   + g.^.^.^.^.^.^.^.^.^.",
"^.^.^.^.^.^.^.^.^.L   +   5 h.    + #.n v.                                                        r     =   h.^.^.^.^.^.^.^.^.^.",
"^.^.^.^.^.^.^.^.^ u   +                                 N y   # = = m r                                 +   @.F.^.^.^.^.^.^.^.^.",
"^.^.^.^.^.^.^.^.T y                                     n n       = u n                                   = ) >.^.^.^.^.^.^.^.^.",
"^.^.^.^.^.^.^.^.) L 5 c.^ +   = ; = ;                                                 B ( c.@.x.#.  g.W.o.= = $.^.^.^.^.^.^.^.^.",
"^.^.^.^.^.^.^.^.)   +     5   5 c.l.]             p                                     ( x.G k.K         -   g.^.^.^.^.^.^.^.^.",
"^.^.^.^.^.^.^.H (   =         m ] x.$.                        ; 1         >             8 6 N 8 N         =   ] S.^.^.^.^.^.^.^.",
"^.^.^.^.^.^.^.R j   +         o + X +                       E E W 9.                                      +   n x.^.^.^.^.^.^.^.",
"^.^.^.^.^.^.^.H 7 j.+ >.] 5                     + n l     = S S S W 8   x N u o                     = L D + t 9 J ^.^.^.^.^.^.^.",
"^.^.^.^.^.^.^.C q   o                           % 8 n     a Z S S F =   r l n                             X   9 A ^.^.^.^.^.^.^.",
"^.^.^.^.^.^.^._ D   +         o                         *.-.h Z Z Z                   Q y b.  n ]         +   V Q ^.^.^.^.^.^.^.",
"^.^.^.^.^.^.^.O.x.  5         n c.] x.              < -.=.d   = =                       i :   - g.  = +   +   _ :.^.^.^.^.^.^.^.",
"^.^.^.^.^.^.^.^.F.8 8 U.R.o.  K = m v.          . &.-.=.@                               3 +   $.+   o 8 ..: E.I ^.^.^.^.^.^.^.^.",
"^.^.^.^.^.^.^.^.Z.: ;         ] G G :         , -.-.,                     p                               X + I ^.^.^.^.^.^.^.^.",
"^.^.^.^.^.^.^.^.>.u                         %.-.s         =       ;                                         & R ^.^.^.^.^.^.^.^.",
"^.^.^.^.^.^.^.^.} U   ;     r           > -.=..           : 6 l n 8                               8 ` o +   : [ ^.^.^.^.^.^.^.^.",
"^.^.^.^.^.^.^.^.^.G.  8 k.8           f -.,                                       + 8 j.o.o.]         = 3 N F ^.^.^.^.^.^.^.^.^.",
"^.^.^.^.^.^.^.^.^.A.8             :.-.g x.                                        + r   l.| #.              ' ^.^.^.^.^.^.^.^.^.",
"^.^.^.^.^.^.^.^.^.O.P   q       d =.$ N x.                                          r F.N v.v.  G     &   3 o.^.^.^.^.^.^.^.^.^.",
"^.^.^.^.^.^.^.^.^.^.Q.  o   x -.,   + L 6                                                       + W.&   o X.^.^.^.^.^.^.^.^.^.^.",
"^.^.^.^.^.^.^.^.^.^.$.Y + 7 5                                                                       1 F.v ..^.^.^.^.^.^.^.^.^.^.",
"^.^.^.^.^.^.^.^.^.^.^.Y.;.  -                                                                     O   x 8.^.^.^.^.^.^.^.^.^.^.^.",
"^.^.^.^.^.^.^.^.^.^.^.o.H.+ o o                                                                   o X <.o.^.^.^.^.^.^.^.^.^.^.^.",
"^.^.^.^.^.^.^.^.^.^.^.^.t.{   -                                                                 O   ! ..^.^.^.^.^.^.^.^.^.^.^.^.",
"^.^.^.^.^.^.^.^.^.^.^.^.^.N.r   ;                                                             %   7 6.^.^.^.^.^.^.^.^.^.^.^.^.^.",
"^.^.^.^.^.^.^.^.^.^.^.^.^.^.I.$   =                                                         %   & y.^.^.^.^.^.^.^.^.^.^.^.^.^.^.",
"^.^.^.^.^.^.^.^.^.^.^.^.^.^.^.I.:   O %                                                 %     & y.^.^.^.^.^.^.^.^.^.^.^.^.^.^.^.",
"^.^.^.^.^.^.^.^.^.^.^.^.^.^.^.^.M.N     1                                             *     0 9.^.^.^.^.^.^.^.^.^.^.^.^.^.^.^.^.",
"^.^.^.^.^.^.^.^.^.^.^.^.^.^.^.^.^.4.n.    o 1                                     * o     ~ ..^.^.^.^.^.^.^.^.^.^.^.^.^.^.^.^.^.",
"^.^.^.^.^.^.^.^.^.^.^.^.^.^.^.^.^.^.] K.c       * %                         O *       4 1.] ^.^.^.^.^.^.^.^.^.^.^.^.^.^.^.^.^.^.",
"^.^.^.^.^.^.^.^.^.^.^.^.^.^.^.^.^.^.^.^.] J.k         % * * % O O % * * +         4 <.] ^.^.^.^.^.^.^.^.^.^.^.^.^.^.^.^.^.^.^.^.",
"^.^.^.^.^.^.^.^.^.^.^.^.^.^.^.^.^.^.^.^.^.^.] s.8.3                         2 ~ 1.] ^.^.^.^.^.^.^.^.^.^.^.^.^.^.^.^.^.^.^.^.^.^.",
"^.^.^.^.^.^.^.^.^.^.^.^.^.^.^.^.^.^.^.^.^.^.^.^.^.] 9.a.1.b z 0 w k b ,.2.5.` ^.^.^.^.^.^.^.^.^.^.^.^.^.^.^.^.^.^.^.^.^.^.^.^.^.",
"^.^.^.^.^.^.^.^.^.^.^.^.^.^.^.^.^.^.^.^.^.^.^.^.^.^.^.^.^.) ( ) ) ) ) ^.^.^.^.^.^.^.^.^.^.^.^.^.^.^.^.^.^.^.^.^.^.^.^.^.^.^.^.^.",
"^.^.^.^.^.^.^.^.^.^.^.^.^.^.^.^.^.^.^.^.^.^.^.^.^.^.^.^.^.^.^.^.^.^.^.^.^.^.^.^.^.^.^.^.^.^.^.^.^.^.^.^.^.^.^.^.^.^.^.^.^.^.^.^.",
"^.^.^.^.^.^.^.^.^.^.^.^.^.^.^.^.^.^.^.^.^.^.^.^.^.^.^.^.^.^.^.^.^.^.^.^.^.^.^.^.^.^.^.^.^.^.^.^.^.^.^.^.^.^.^.^.^.^.^.^.^.^.^.^.",
"^.^.^.^.^.^.^.^.^.^.^.^.^.^.^.^.^.^.^.^.^.^.^.^.^.^.^.^.^.^.^.^.^.^.^.^.^.^.^.^.^.^.^.^.^.^.^.^.^.^.^.^.^.^.^.^.^.^.^.^.^.^.^.^.",
"^.^.^.^.^.^.^.^.^.^.^.^.^.^.^.^.^.^.^.^.^.^.^.^.^.^.^.^.^.^.^.^.^.^.^.^.^.^.^.^.^.^.^.^.^.^.^.^.^.^.^.^.^.^.^.^.^.^.^.^.^.^.^.^.",
"^.^.^.^.^.^.^.^.^.^.^.^.^.^.^.^.^.^.^.^.^.^.^.^.^.^.^.^.^.^.^.^.^.^.^.^.^.^.^.^.^.^.^.^.^.^.^.^.^.^.^.^.^.^.^.^.^.^.^.^.^.^.^.^.",
"^.^.^.^.^.^.^.^.^.^.^.^.^.^.^.^.^.^.^.^.^.^.^.^.^.^.^.^.^.^.^.^.^.^.^.^.^.^.^.^.^.^.^.^.^.^.^.^.^.^.^.^.^.^.^.^.^.^.^.^.^.^.^.^.",
"^.^.^.^.^.^.^.^.^.^.^.^.^.^.^.^.^.^.^.^.^.^.^.^.^.^.^.^.^.^.^.^.^.^.^.^.^.^.^.^.^.^.^.^.^.^.^.^.^.^.^.^.^.^.^.^.^.^.^.^.^.^.^.^."
};
