/* XPM */
static char *result[] = {
/* columns rows colors chars-per-pixel */
"64 48 256 2 ",
"   c black",
".  c #010101",
"X  c #020202",
"o  c gray1",
"O  c #040404",
"+  c gray2",
"@  c #060606",
"#  c #070707",
"$  c gray3",
"%  c #090909",
"&  c gray4",
"*  c #0B0B0B",
"=  c #0C0C0C",
"-  c gray5",
";  c #0E0E0E",
":  c gray6",
">  c #101010",
",  c #111111",
"<  c gray7",
"1  c #131313",
"2  c gray8",
"3  c #151515",
"4  c #161616",
"5  c gray9",
"6  c #181818",
"7  c #191919",
"8  c gray10",
"9  c #1B1B1B",
"0  c gray11",
"q  c #1D1D1D",
"w  c #1E1E1E",
"e  c gray12",
"r  c #202020",
"t  c gray13",
"y  c #222222",
"u  c #232323",
"i  c gray14",
"p  c #252525",
"a  c gray15",
"s  c #272727",
"d  c #282828",
"f  c gray16",
"g  c #2A2A2A",
"h  c gray17",
"j  c #2C2C2C",
"k  c #2D2D2D",
"l  c gray18",
"z  c #2F2F2F",
"x  c gray19",
"c  c #313131",
"v  c #323232",
"b  c gray20",
"n  c #343434",
"m  c #353535",
"M  c gray21",
"N  c #373737",
"B  c gray22",
"V  c #393939",
"C  c #3A3A3A",
"Z  c gray23",
"A  c #3C3C3C",
"S  c gray24",
"D  c #3E3E3E",
"F  c #3F3F3F",
"G  c gray25",
"H  c #414141",
"J  c gray26",
"K  c #434343",
"L  c #444444",
"P  c gray27",
"I  c #464646",
"U  c gray28",
"Y  c #484848",
"T  c #494949",
"R  c gray29",
"E  c #4B4B4B",
"W  c #4C4C4C",
"Q  c gray30",
"!  c #4E4E4E",
"~  c gray31",
"^  c #505050",
"/  c #515151",
"(  c gray32",
")  c #535353",
"_  c gray33",
"`  c #555555",
"'  c #565656",
"]  c gray34",
"[  c #585858",
"{  c gray35",
"}  c #5A5A5A",
"|  c #5B5B5B",
" . c gray36",
".. c #5D5D5D",
"X. c gray37",
"o. c #5F5F5F",
"O. c #606060",
"+. c gray38",
"@. c #626262",
"#. c gray39",
"$. c #646464",
"%. c #656565",
"&. c gray40",
"*. c #676767",
"=. c #686868",
"-. c DimGray",
";. c #6A6A6A",
":. c gray42",
">. c #6C6C6C",
",. c #6D6D6D",
"<. c gray43",
"1. c #6F6F6F",
"2. c gray44",
"3. c #717171",
"4. c #727272",
"5. c gray45",
"6. c #747474",
"7. c gray46",
"8. c #767676",
"9. c #777777",
"0. c gray47",
"q. c #797979",
"w. c gray48",
"e. c #7B7B7B",
"r. c #7C7C7C",
"t. c gray49",
"y. c #7E7E7E",
"u. c gray50",
"i. c #808080",
"p. c #818181",
"a. c gray51",
"s. c #838383",
"d. c #848484",
"f. c gray52",
"g. c #868686",
"h. c gray53",
"j. c #888888",
"k. c #898989",
"l. c gray54",
"z. c #8B8B8B",
"x. c gray55",
"c. c #8D8D8D",
"v. c #8E8E8E",
"b. c gray56",
"n. c #909090",
"m. c gray57",
"M. c #929292",
"N. c #939393",
"B. c gray58",
"V. c #959595",
"C. c gray59",
"Z. c #979797",
"A. c #989898",
"S. c gray60",
"D. c #9A9A9A",
"F. c #9B9B9B",
"G. c gray61",
"H. c #9D9D9D",
"J. c gray62",
"K. c #9F9F9F",
"L. c #A0A0A0",
"P. c gray63",
"I. c #A2A2A2",
"U. c gray64",
"Y. c #A4A4A4",
"T. c #A5A5A5",
"R. c gray65",
"E. c #A7A7A7",
"W. c gray66",
"Q. c #A9A9A9",
"!. c #AAAAAA",
"~. c gray67",
"^. c #ACACAC",
"/. c gray68",
"(. c #AEAEAE",
"). c #AFAFAF",
"_. c gray69",
"`. c #B1B1B1",
"'. c #B2B2B2",
"]. c gray70",
"[. c #B4B4B4",
"{. c gray71",
"}. c #B6B6B6",
"|. c #B7B7B7",
" X c gray72",
".X c #B9B9B9",
"XX c gray73",
"oX c #BBBBBB",
"OX c #BCBCBC",
"+X c gray74",
"@X c gray",
"#X c gray75",
"$X c #C0C0C0",
"%X c #C1C1C1",
"&X c gray76",
"*X c #C3C3C3",
"=X c gray77",
"-X c #C5C5C5",
";X c #C6C6C6",
":X c gray78",
">X c #C8C8C8",
",X c gray79",
"<X c #CACACA",
"1X c #CBCBCB",
"2X c gray80",
"3X c #CDCDCD",
"4X c #CECECE",
"5X c gray81",
"6X c #D0D0D0",
"7X c gray82",
"8X c #D2D2D2",
"9X c LightGray",
"0X c gray83",
"qX c #D5D5D5",
"wX c gray84",
"eX c #D7D7D7",
"rX c #D8D8D8",
"tX c gray85",
"yX c #DADADA",
"uX c gray86",
"iX c gainsboro",
"pX c #DDDDDD",
"aX c gray87",
"sX c #DFDFDF",
"dX c gray88",
"fX c #E1E1E1",
"gX c #E2E2E2",
"hX c gray89",
"jX c #E4E4E4",
"kX c gray90",
"lX c #E6E6E6",
"zX c #E7E7E7",
"xX c gray91",
"cX c #E9E9E9",
"vX c #EAEAEA",
"bX c gray92",
"nX c #ECECEC",
"mX c gray93",
"MX c #EEEEEE",
"NX c #EFEFEF",
"BX c gray94",
"VX c #F1F1F1",
"CX c gray95",
"ZX c #F3F3F3",
"AX c #F4F4F4",
"SX c gray96",
"DX c #F6F6F6",
"FX c gray97",
"GX c #F8F8F8",
"HX c #F9F9F9",
"JX c gray98",
"KX c #FBFBFB",
"LX c gray99",
"PX c #FDFDFD",
"IX c #FEFEFE",
"UX c white",
/* pixels */
"UXUXUXUXUXUXUXUXUXUXUXUXUXUXUX4X+X=X X*X=X5XjXmXyX3X=X*X*X#X;X0X2X+XqXFXUXUXUXUXUXUXUXUXUXUXUXUXUXUXUXUXUXUXUXUXUXUXUXUXUXUXUXUX",
"UXUXUXUXUXUXUXUXUXUXUXUXUXUXJXc.oXCXGXSXNXhX<X8XwXlXNXFXPXUXUXUXUXFXqX%X4XzXPXUXUXUXUXUXUXUXUXUXUXUXUXUXUXUXUXUXUXUXUXUXUXUXUXUX",
"UXUXUXUXUXUXUXUXUXUXUXUXUXUXZXi.6X@X=XrXlXtXtXUXUXUXUXUXUXUXUXUXUXUXUXJXxX3X-XnXUXUXUXUXUXUXUXUXUXUXUXUXUXUXUXUXUXUXUXUXUXUXUXUX",
"UXUXUXUXUXUXUXUXUXUXUXUXUXUXHX6.aXKXgX<X-X4XDXUXUXUXUXUXUXUXUXUXUXUXUXUXUXUXMX-X9XKXUXUXUXUXUXUXUXUXUXUXUXUXUXUXUXUXUXUXUXUXUXUX",
"UXUXUXUXUXUXUXUXUXUXUXUXUXUXUXv.G.UXUXUXUXUXUXUXUXUXUXUXUXUXUXUXUXUXUXUXUXUXUXLXrX*XxXUXUXUXUXUXUXUXUXUXUXUXUXUXUXUXUXUXUXUXUXUX",
"UXUXUXUXUXUXUXUXUXUXUXUXUXUXUXqX` fXUXUXUXUXUXUXUXUXUXUXUXUXUXUXUXUXUXUXUXUXUXUXUXBX<X>XxXUXUXUXUXUXUXUXUXUXUXUXUXUXUXUXUXUXUXUX",
"UXUXUXUXUXUXUXUXUXUXUXUXUXUXUXUXM.o.vXUXUXUXUXUXUXUXUXUXIXJXUXUXUXUXUXUXUXUXUXUXUXUXUXbX<XOXDXUXUXUXUXUXUXUXUXUXUXUXUXUXUXUXUXUX",
"UXUXUXUXUXUXUXUXUXUXUXUXUXUXUXLXNX4.( ,XPXUXUXUXUXUXUXUX7XdXUXUXUXUXUXUXUXUXUXUXUXUXUXUXUX>XD.CXUXUXUXUXUXUXUXUXUXUXUXUXUXUXUXUX",
"UXUXUXUXUXUXUXUXUXUXUXVXqX(.x.5.*.{ u 9 | K.,XpXkXkXeXH.D 6XUXUXUXUXUXUXUXUXUXUXUXUXUXUXUXUX}.j.DXUXUXUXUXUXUXUXUXUXUXUXUXUXUXUX",
"UXUXUXUXUXUXUXUXZXeX>X$XOX-X7XtXiXpXuXU.S O a 8.i.i.1.4 # oXUXUXUXUXUXUXUXUXUXUXUXUXUXUXUXUXUXV.v.PXUXUXUXUXUXUXUXUXUXUXUXUXUXUX",
"UXUXUXUXUXUXUXgXXXiXZXIXUXUXUXUXUXUXUXIX2XU.;.u.b.b.-.,   A 3XUXUXUXUXUXUXUXUXUXUXUXUXUXUXUXUXAX=./.UXUXUXUXUXUXUXUXUXUXUXUXUXUX",
"UXUXUXUXUXUXlXR.NXUXUXUXUXUXUXUXUXUXUXUXn.).lXOXVXCX&.      t U.GXUXPXJXUXUXUXUXUXUXUXUXUXUXUXUX8XW wXUXUXUXUXUXUXUXUXUXUXUXUXUX",
"UXUXUXUXUXGXP.sXUXUXPXDXUXUXUXUXUXUXUXUXp.; #.=XUXUX3.        % _ B.l.lXUXUXUXUXUXUXUXUXUXUXUXUXUXv. .SXUXUXUXUXUXUXUXUXUXUXUXUX",
"UXUXUXUXUXXXOXUXUXUXUX6XxXUXUXUXUXUXUXKXO.    4.`.).T               V ZXUXUXUXUXUXUXUXUXUXUXUXUXUXMXI b.UXUXUXUXUXUXUXUXUXUXUXUX",
"UXUXUXUXnXS.DXUXUXUXUXrXp.ZXUXUXUXIX-X| 8 v { 4.4.6.%.H 9 .         R JXUXUXUXUXUXUXUXUXUXUXUXUXUXUX~.t %XUXUXUXUXUXUXUXUXUXUXUX",
"UXUXUXUX].%XUXUXUXUXUXGXQ %.hXIXfX0.v O.I.oX#X<X,X:X#X[.Q.d.n .     / KXUXUXUXUXUXUXUXUXUXUXUXUXUXUXVXC n fXUXUXUXUXUXUXUXUXUXUX",
"UXUXUXDXb.MXFXzXhXKXUXUX>.  j _ z ^ R.&X=X$X#XXXoXOX=X:X%X+X9Xg.3   T HXUXUXUXUXUXUXUXUXUXUXUXUXUXUXUXk.  _ nXUXUXUXUXUXUXUXUXUX",
"UXUXUXqXZ.UXGXhX).k.,XUX3.    % 4.@X-X#X#X9XzXNXBXvXxXeX;X*XgXUX Xu C AXUXUXUXUXUXUXUXUXUXUXUXUXUXUXUX;X;   ..xXUXUXUXUXUXUXUXUX",
"UXUXUXW.OXUXUXUXUX8X=.N.S   & t.;X:X+XyXJXUXUX>X#X'.nXUXIXjX-XfXUX*XE kXUXUXUXUXUXUXUXUXUXUXUXUXUXUXUXcXh     V B.5XHXUXUXUXUXUX",
"UXUXVXe.xXUXUXUXUXUXjXI     ;.%X;X%XNXBXF.ZXUX6X(.T.BXUX!.5XKX:XiXUXN.,XUXUXUXUXUXUXUXUXUXUXUXUXUXUXUXJXW . W L 3 1 ~ ~.MXUXUXUX",
"UXUX'.r.UXUXUXUXUXUXUX].+ M XX*XOXBXUXFXK.jXUXFXzXpXJXKXG.0XUXLX>XcX}.R.UXUXUXUXUXUXUXUXUXUXUXUXUXUXUXUX&.a zXGX5Xr.y + N B.hXUX",
"DX`...F.UXvXtXgXCXIXUXsXi N.$XOXjXUXUXUXIXLXUXUXUXUXUXBXN.yXUXUXDX*X4Xp.PXUXUXUXUXUXUXUXUXUXUXUXUXUXUXUX8.] PXUXUXUXaX0.:   f 6.",
"%X2XrXs.DX.XzXnXeX.XHXpX( +X X<XvXG.NXUXUXUXUXUXUXUXUXd.` DXIX_.5XaX4X8.gXUXUXUXUXUXUXUXUXUXUXUXUXUXUXUXz.n.UXUXUXUXUXIX#X` : @ ",
"+XUXHXO.+X|.yXFXuXk.PX.Xu.@X}.xXAXU.pXpX(.pXUXUXUXUXeX-.yXUXCXY.tXJX<Xx.Y.UXUXUXUXUXUXUXUXUXUXUXUXUXUXUXE.:XUXUXUXUXUXUXUXHX<XD.",
"1XUXUX|. .8.1XsX*Xx.KX1.K.`.#XJXUXUXUXaXd M sXUXUXGXQ.sXUXUXUXUXUXUX5X XO.AXUXUXUXUXUXUXUXUXUXUXUXUXUXUX2XMXUXUXUXUXUXUXUXUXUXUX",
"&XUXUXIX8XK.d.qXBXz.F.d @X|.2XKXvXPXUXUX#X>.2.eXkX~.eXUXUXUXUXPXHXUXyX0XX.^.UXUXUXUXUXUXUXUXUXUXUXUXUXUXHXIXUXUXUXUXUXUXUXUXUXUX",
"W.UXUXUXUXUX4X@.Y y + 9 qXiXyXsXZ.dXUXUXUXUXtX0.V ,.LXUXUXUXUXlX).MXuXwX].Y bXUXUXUXUXUXUXUXUXUXUXUXUXUXUXUXUXUXUXUXUXUXUXUXUXUX",
"M.CXUXUXUXUXUXzXD.<.V a sXMXyXcXL.kXUXUXUXUXUX_.n x.IXUXUXUXUXgXP.gXrX9XDXK r.IXUXUXUXUXUXUXUXUXUXUXUXUXUXUXUXUXUXUXUXUXUXUXUXUX",
"D..XUXUXUXUXMX4XfXnXMX|.8XNX4XPXSXIXUXUXUXUXUXFXeXNXUXUXUXUXUXCXsXHXqXyXJXL = ^.UXUXUXUXUXUXUXUXUXUXUXUXUXUXUXUXUXUXUXUXUXUXUXUX",
"iX;.pXUXUXUXbX7XuX@XxXUX1XsX-XLXUXUXUXUXUXUXUXUXUXUXUXUXUXUXUXUXUXKX3XcXxXd   w XXUXUXUXUXUXUXUXUXUXUXUXUXUXUXUXUXUXUXUXUXUXUXUX",
"UX[.#.0XUXUXUXGXmX#XjXUXeX0X,XnXGX$XgXUXUXUXUXUXUXUXUXUXUXUXBXOXxXfX&XLX%X=   = | pXUXUXUXUXUXUXUXUXUXUXUXUXUXUXUXUXUXUXUXUXUXUX",
"UXUX(.B A.vXcXUXUX>XdXUX:XiXkX7XkXd.cXUXUXUXUXUXUXUXUXUXUXUXGXN.).=X7XUXu.  e '.VXFXUXUXUXUXUXUXUXUXUXUXUXUXUXUXUXUXUXUXUXUXUXUX",
"UXLXi.e 4 n O.7XUX1X=XvX} oXUX-XnXUXUXUXUXIXUXUXUXUXUXIXUXUXUXGX|..XDXlXj @ Y.UXUXUXUXUXUXUXUXUXUXUXUXUXUXUXUXUXUXUXUXUXUXUXUXUX",
"UX7X{ eX4Xt.x l ` { K ` e } DXmX=XJXUXKX XxXUXUXKXIXUXGX'.NXPX].Y.aXUXh.  } HXUXUXUXUXUXUXUXUXUXUXUXUXUXUXUXUXUXUXUXUXUXUXUXUXUX",
"UXT.l.UXUXUXnX*XP.K. XyXdX(.$XUXsX:XHXbXs.BXUXxX^.bXUXUXN.OXY.x.5XUX;X7 1 >XUXUXUXUXUXUXUXUXUXUXUXUXUXUXUXUXUXUXUXUXUXUXUXUXUXUX",
"UXF.`.UXUXUXUXUXUXKXAXGXUXUX5X<XUXhX+X2XnXUXUXtXC.gXUXFX&Xe.z.0XUXuXN   3.IXUXUXUXUXUXUXUXUXUXUXUXUXUXUXUXUXUXUXUXUXUXUXUXUXUXUX",
"UXG.P.UXUXUXUXFXwXpX:X_.UXUXJXy.'.UXVX|.n.P.*X3X].=X).i.w.~.vXUXwXG   d uXUXUXUXUXUXUXUXUXUXUXUXhXCXUXUXUXUXUXUXUXUXUXUXUXUXUXUX",
"UXoX@.HXUXUXUXgX&XsX0XW.PXUXUXM.3 c.VXUXnX+XL.v.s.N.W.#XxXUXKX~.h   : Q.UXUXUXUXUXUXUXUXUXUXUXUXG.3XUXUXUXUXUXUXUXUXUXUXUXUXUXUX",
"UXSX-.M.LXUXUXBXkXPXIX).zXUXUXz.    J R.cXUXUXUXLXUXUXUXVX.X{ %   i L.IXUXUXUXUXUXUXUXUXUXUXUXSX) $XUXUXUXUXUXUXUXUXUXUXUXUXUXUX",
"UXUXzX2.<.$XmXDXhXUXUX5XW.UXeXx 5 A , o k %.B.(.oX`.S.<.M *   8 s.pXUXUXUXUXUXUXUXUXUXUXUXUXUX}.: /.UXUXUXUXUXUXUXUXUXUXUXUXUXUX",
"UXUXUXDX^.' z U M %.i.l.E %.M  .2XNX'.5       X = 6 9 5 $   7 oXUXUXUXUXUXUXUXUXUXUXUXUXUXUXvXG   :.AXUXUXPXIXUXUXUXUXUXUXUXUXUX",
"UXUXUXUXUXN.M ! n 1 O   : F T.uX,X2X8X$.    d j.`.6XpXiX%XO.-.UXUXUXUXUXUXUXUXUXUXUXUXUXUXFX,.    # F 2.s.$.3XUXUXUXUXUXUXUXUXUX",
"UXUXUXUXIXk.eXIXBXwX.XQ.<XCXwX&XuXJX XL   @ ).UXUXUXUXUXUXFX<XUXUXUXUXUXUXUXUXUXUXUXUXUXSX0.+               F 4XUXUXUXUXUXUXUXUX",
"UXUXUXUXUX@XxXUXUXUXUXUXUXUXHXIXUXiX/       >.&XqXaXpX0X;X_.w.b.;XfXVXJXLXIXUXUXUXUXUXuXX..   3 X.S.G.0.v     e f.sXUXUXUXUXUXUX",
"UXUXUXUXUXxX2XUXUXUXUXUXUXUXdX%XT.v   0 -.' D G I P L P T { ^ S C Z H ~ ^ ' @.1.r.p.<.y . i 2.1XLXUXUXUXzXt.e     u 2.@XNXUXUXUX",
"UXUXUXUXUXUX2XuXUXUXUXUXUXUXsXR   @ E ;XUXLXSXNXbXkXkXnXCXLXLXSXcXrXOXI.i.X.F v y u B $.R.fXUXUXUXUXUXUXUXUXuXA.! 9   $ n 8. XbX",
"UXUXUXUXUXUXDX^.S.`.|.`.D.q.R l { `.AXUXUXUXUXUXUXUXUXUXUXUXUXUXUXUXUXUXUXUXFXVXzXzXAXUXUXUXUXUXUXUXUXUXUXUXUXUXHXiXU.+.p o # v.",
"UXUXUXUXUXUXUXHX:XA.s.w.p.f.R.eXKXUXUXUXUXUXUXUXUXUXUXUXUXUXUXUXUXUXUXUXUXUXUXUXUXUXUXUXUXUXUXUXUXUXUXUXUXUXUXUXUXUXUXIXdXH.H N."
};
