/* XPM */
static char *result[] = {
/* columns rows colors chars-per-pixel */
"80 53 177 2 ",
"   c #49381C",
".  c #544524",
"X  c #5D4D2C",
"o  c #60502F",
"O  c #645435",
"+  c #66573A",
"@  c #6B5B3B",
"#  c #70603F",
"$  c #6E5E42",
"%  c #746445",
"&  c #796947",
"*  c #756448",
"=  c #7C6B4C",
"-  c #756951",
";  c #7C6D54",
":  c #7F7053",
">  c #7F725F",
",  c #806F53",
"<  c #847454",
"1  c #897957",
"2  c #84745C",
"3  c #8C775C",
"4  c #8C7B5C",
"5  c #937E5F",
"6  c #867B67",
"7  c #8C7C62",
"8  c #8C7E6B",
"9  c #957E62",
"0  c #907F6D",
"q  c #90805F",
"w  c #8F816B",
"e  c #958364",
"r  c #998465",
"t  c #998867",
"y  c #95856A",
"u  c #9A866B",
"i  c #978869",
"p  c #9B8B6C",
"a  c #8D8674",
"s  c #938573",
"d  c #988775",
"f  c #948974",
"g  c #9E8C72",
"h  c #95867B",
"j  c #958C7B",
"k  c #9C8D7B",
"l  c #9E9074",
"z  c #97907E",
"x  c #9C917D",
"c  c #A18D6D",
"v  c #A1906F",
"b  c #A08E73",
"n  c #A18E7B",
"m  c #A39274",
"M  c #A89577",
"N  c #A89877",
"B  c #A4937A",
"V  c #A8967B",
"C  c #A6987C",
"Z  c #AB9B7C",
"A  c #B0A07F",
"S  c #9D9382",
"D  c #9D9A8B",
"F  c #A39582",
"G  c #A59985",
"H  c #AB9C82",
"J  c #A39789",
"K  c #A59A8B",
"L  c #AB9C8A",
"P  c #B09F83",
"I  c #A49590",
"U  c #A49F92",
"Y  c #AC9C91",
"T  c #ADA085",
"R  c #ABA18E",
"E  c #B3A484",
"W  c #B8A887",
"Q  c #B2A38B",
"!  c #BBAA8A",
"~  c #A6A294",
"^  c #ABA294",
"/  c #ACA59A",
"(  c #AEAA9A",
")  c #B3A594",
"_  c #B3A996",
"`  c #BAAD94",
"'  c #B2A69A",
"]  c #B4AB9B",
"[  c #BBAD9C",
"{  c #B3B09F",
"}  c #B4ADA2",
"|  c #BAADA3",
" . c #B5AFA9",
".. c #B6B3A2",
"X. c #BCB3A4",
"o. c #BBB8A7",
"O. c #B6B3AC",
"+. c #BBB4AC",
"@. c #BDB9AB",
"#. c #BEB7B3",
"$. c #BEBBB5",
"%. c #C2B291",
"&. c #C4B5A7",
"*. c #C1B6AB",
"=. c #C2BCAC",
"-. c #CABEAD",
";. c #C3BCB4",
":. c #C9BEB4",
">. c #C5BEBA",
",. c #CDBFBC",
"<. c #CCC1AF",
"1. c #C5C2B2",
"2. c #CAC3B4",
"3. c #C6C2BA",
"4. c #CBC4BB",
"5. c #CDCABC",
"6. c #D0C9B7",
"7. c #D2C6BB",
"8. c #D2C9BD",
"9. c #D8CABD",
"0. c #C7C6C1",
"q. c #CCC6C0",
"w. c #CDC9C2",
"e. c #CDCEC9",
"r. c #D0C5C2",
"t. c #D2CCC4",
"y. c #D9CFC3",
"u. c #D4CEC9",
"i. c #D8CECA",
"p. c #D5D1C4",
"a. c #DAD3C5",
"s. c #D6D1CB",
"d. c #DAD4CC",
"f. c #DDDACD",
"g. c #DBD6D2",
"h. c #DEDAD4",
"j. c #DDDBDB",
"k. c #E0D5CF",
"l. c #E0DBCD",
"z. c #E0D7D2",
"x. c #E2DCD5",
"c. c #E8DCD0",
"v. c #E3DDDA",
"b. c #E9DFDC",
"n. c #DFE0DD",
"m. c #E4E0D7",
"M. c #EAE3D5",
"N. c #E5E1DC",
"B. c #E9E3DD",
"V. c #ECE8DD",
"C. c #DFDFE1",
"Z. c #E1DFE0",
"A. c #DDE0E2",
"S. c #E5E4E2",
"D. c #EAE5E2",
"F. c #E6EBE5",
"G. c #ECE9E5",
"H. c #E5E6E8",
"J. c #ECE7E8",
"K. c #E6E8EA",
"L. c #EDECEB",
"P. c #F0E7E3",
"I. c #F1ECE5",
"U. c #F1EEEA",
"Y. c #EDF2ED",
"T. c #F4F0E6",
"R. c #F3F1ED",
"E. c #F9F5EE",
"W. c #FCF8EF",
"Q. c #EEEEF0",
"!. c #F2EEF1",
"~. c #EEF2F1",
"^. c #F5F4F2",
"/. c #F9F6F3",
"(. c #F6F8F5",
"). c #FBF9F4",
"_. c #FCFBF9",
/* pixels */
"p.f.f.p.$.o.3.a.s.h.N.v.v.v.J.J.T.M.1...~ ~ 1.p.Y.F.T.E.).D.x.G.v.G.F.f.e.s.s.$.P.I.P.z.P.B.r.x.+.;.q.x.N.N.B.D.N.D.F.J.U.L.L.S.F.(.W.F.L.R.U.B.z.y.9.-.%.Q F b ",
"a...D D { 1.s.n.s.N.N.g.j.J.U.v.l.l...C U 1.V.f.m.T.F.M.D.G.D.B.U.I.N.d.s.m.N.m.P.I.B.i.z.B.i.i.b.b.V.D.D.B.D.G.G.J.^./._.^.L.F.N.N.F.N.B.x.d.u.k.7.&.) L H H H ",
"f...D ~ 1.p.f.p.h.N.j.s.g.j.j.u.l.1.( o.@.@.f.T.V.W.E.V.J.U.U.U.G.j.d.s.d.h.N.G.I.I.V.4.r.b.z.i.v.v.b.b.j.g.h.N.U.U.^._._.^.U.J.n.s.0.e.w.0.r.i.z.7.[ K G H H H ",
"( ( ..1.w.p.p.n.h.s.d.N.v.u.u.g.p.a.1...@.5.V.f.F.V.V.N.B.v.v.G.I.D.m.B.V.G.G.B.T.B.B.u.r.x.b.c.z.x.b.B.v.v.v.D.G.U.^./._.^.Y.G.F.h.0.$.$.3.u.p.,.*.) J F C C B ",
"o.o.1.6.5.5.5.s.p.w.d.G.J.h.g.m.n.8.{ { 5.V.E.h.s.n.h.h.N.N.N.P.F.I.T.G.I.R.V.h.B.x.D.b.d.i.i.v.V.M.b.b.b.h.b.D.G.U.Y.^.^.^.^.^.R.T.B.t.3.3.>.+.Y I F k n b b b ",
"p.6.1.1.5.5.1...4.f.B.N.b.m.g.w.5.1.o.l.T.V.M.M.o.p.d.0.i.U.R.J.n.B.V.j.N.N.v.t.z.d.D.P.v.i.;.r.b.z.d.d.h.v.D.G.D.J.L.L.L.U.R.^.R.R.B.w.$.#.+.Y ] ^ J F B B n B ",
"o.o.{ ( { 5.1.@.w.m.m.f.h.m.t. .( s.V.V.V.V.G.p...w.w.+.>.v.N.h.B.V.V.B.N.N.x.j.g.x.g.u.i.r.+.,.x.d.u.z.D.G.I.U.N.D.G.L.L.G.L.L.G.L.v.u.;.+.X. .*.&.[ ) L B B n ",
"1.8.5.( D o.p.l.a.p.p.f.V.B.w.+.3.p.p.M.B.f.B.B.g.N.g.w.i.j.v.D.D.m.B.F.B.h.d.x.b.M.t. .,.r.;.i.u.q.t.v.G.J.v.d.D.J.L.^.U.Y.L.L.N.B.G.D.f.>.X.| ' [ [ ` L V b g ",
"5.f.p.] } p.h.4.p.t.p.a.g.f.f.h.B.M.B.N.V.B.N.B.h.v.x.g.g.x.v.h.s.n.s.p.g.e.e.B.d.c.m.u.;.,.g.B.4.z.P.D.v.h.v.N.L.G.G.H.Y./.(.L.v.j.x.G.M.8.[ ^ &.&.Y n n n n V ",
"a.w.4.t.p.a.s.d.s.p.d.s.h.n.l.n.N.m.h.f.h.h.N.B.B.m.h.s.s.g.j.v.h.h.4.$.4.h.x.h.G.v.i.u.b.P.z.:.i.x.B.M.v.D.D.B.B.G.L.J.U././.^./.v.w.w.u.4.X.^ | ! Y V M n n 0 ",
"h.4.3.d.N.s.u.h.s.s.s.s.f.h.h.f.B.N.b.h.m.N.N.D.D.B.v.d.s.d.g.d.l.n.t.O.O.d.v.w.u.q.;.;.u.g.i.,.B.B.b.b.D.G.J.m.v.D.L.Y.R.^.^.^.U.g.;.+.2.5.[ k Y V Y n n n n 9 ",
"n.d.e.w.s.s.i.i.s.s.d.s.d.h.h.x.x.b.N.D.V.N.V.B.B.D.D.N.h.s.w.3.4.s.n.0.O.0.s.4.4.u.u.w.r.i.b.P.I.D.x.x.B.J.J.M.N.J.L.L.L.L.L.L.J.v.,.;.r.y.X.j Y 0 n 9 c n n 9 ",
"N.B.v.s.u.i.z.z.h.h.h.j.h.j.v.v.v.v.v.D.D.D.D.D.D.G.G.G.v.u.>.#.O.3.h.h.3.4.h.d.g.x.M.b.b.b.b.c.P.M.x.v.N.D.D.D.G.D.G.H.G.S.N.j.J.D.g.,.,.,.&.F P 0 M 9 9 n n c ",
"j.j.v.N.Z.k.j.Z.v.N.v.v.v.v.N.B.D.N.B.N.B.J.P.I.I.G.D.V.v.i.r.4.s.s.f.m.h.h.m.N.x.b.b.x.z.d.d.z.b.x.x.b.B.D.G.U.R.G.H.G.H.n.g.g.g.Z.b.d.y.9.-.) 0 P n V M 0 n n ",
"v.g.j.J.J.v.g.Z.Z.D.v.v.v.v.v.S.D.D.D.D.D.P.U.E.I.D.V.P.P.b.z.x.F.V.V.n.N.n.l.D.M.D.B.b.g.d.z.D.x.x.b.B.D.D.G.U.U.G.J.L.S.j.j.j.g.z.b.z.c.k.9.%.P 0 V n M n M 0 ",
"b.Z.Z.v.Z.Z.Z.v.v.v.v.h.g.g.j.b.j.v.N.G.G.U.D.D.D.D.D.U.U.U.U.U.n.G.B.h.n.n.f.V.B.B.B.P.P.b.d.t.N.N.B.L.U.G.B.D.G.U.U.L.D.j.j.S.b.i.,.&.&.%.) 0 0 P 0 0 n 9 n P ",
"v.b.P.b.Z.z.b.b.v.Z.D.v.v.J.D.D.D.N.B.N.B.V.N.j.D.D.D.b.D.D.J.U.T.F.N.m.N.D.G.F.B.N.N.N.N.N.N.N.^.~.F.F.Y.F.F.Y.G.G.P.P.Z.z.i.r.y.-.Q h y w y y d g g g 0 P 9 9 ",
"b.Z.Z.P.P.P.z.k.g.v.b.z.v.D.J.D.G.D.D.S.F.H.G.D.B.D.D.J.Z.P.J.P.D.N.B.B.B.m.V.B.B.m.h.f.h.N.B.F.F.Y.Y.Y.R.F.G.G.U.G.Z.b.z.i.,.,.) B 7 3 i B B n b g c d 0 M V M ",
"b.b.b.Z.J.J.z.g.j.b.Z.v.Z.Z.J.D.S.F.D.F.G.J.L.L.H.Z.J.J.!.P.P.Z.N.F.D.F.N.N.N.S.F.N.N.n.B.F.R.R.Y.Y.~.Y.Y.L.S.v.u.i.d.i.,.| I S 8 g y i C g 6 7 b b 0 u 0 M M 0 ",
"Z.b.z.i.z.Z.Z.Z.v.v.D.S.D.J.D.v.S.H.F.L.F.F.L.L.J.J.J.J.!.J.J.!.D.G.Y.R.F.F.G.F.F.F.G.R.(.).W.R.(.W.(.Y.n.h.h.s.4.t.y.7.*.Y 0 8 y k y w g g y B 0 c 0 9 0 M 9 c ",
"J.Z.v.j.b.Z.J.J.v.A.S.N.S.N.S.S.J.K.Q.K.H.J.K.L.!.L.!.J.!.!.!.!.R.U.L.L.R.R.R.R.F.L.R.R./.(.R.R.(.Y.G.j.3.3.w.:.,.:.&.) I h h F g l i p B i w p c 0 9 0 c 0 n 9 ",
"v.Z.H.H.Z.j.v.Z.S.N.S.J.K.J.J.L.Q.Q.Q.Q.Q.K.Q.Q.!.!.!.!.!.!././.^.Y.F.D.L.R.R.R.R.R.R.R.R.R.L.L.I.V.M.p.+.@.:.X.L L 0 0 0 0 0 n p k B f ; $ = w 0 c c 0 9 n 9 n ",
"C.S.H.S.C.j.j.S.L.K.G.L.L.L.L.^.K.Q.Q.K.Q.Q.Q.Q.!.!.!.!.!.!././.R.U.I.G.G.G.G.I.L.G.D.L.G.D.N.v.m.h.M.k.*.X.&.K 0 0 0 n n b n b g < : = + $ i H 9 c b c c 9 n b ",
"H.H.H.A.C.S.H.K.Y.L.H.L.L.G.G.U.K.H.H.K.L.Q.!.K.!.U.!.!././.^.U.U.R.R.U.G.N.D.G.f.n.N.B.S.j.s.u.a.p.B.c.*.| ) w F F n b 9 M M 9 g + + 7 l Q H : 9 9 0 c 9 9 9 9 ",
"H.A.A.K.H.K.K.H.S.L.R.Y.P.U.J.D.Q.L.K.K.!./././.J./.P.B.P.L.m.D.D.M.m.w.4.O.w.f.B.d.4.w.p.s.4.1.,.7.9.7.2.&.) g V b 9 c c c c c = q l p l T i % H b 9 0 9 9 9 9 ",
"C.j.C.A.H.L.L.L.L.R.R.U.E.)._.).!.R.U.^.^.E.^.U.R.U.B.v.M.v.f.d.2.u.l.p.8.@.@.( ( ( ~ ~ / ~ ~ D J F F n J F g f n b M M c c c 9 p i p w l E v 2 M M 9 c 9 9 0 M ",
"A.C.A.H.L.Y.R.R.E.E.E.R.E.E.).E.^./._.).E.R.T.T.I.d.5.7.6.1.=.o.a.6.<._ =.X.( a z z z z j z z z d 0 6 0 0 p g g c b b c c c c r t p w q Z W w q M 9 9 9 b 9 9 9 ",
"~.~.~.~.^.R.^.E.U.R.T.I.T.P.V.b.k.x.b.M.c.v.M.M.a.] U L D x D x x F R j x j F S x G G D G S G G L n n n B b l B n b c 9 r r r r q t q i W E q e M c 9 c 9 9 9 9 ",
"(.(.~.Y.R.R.R.R.D.B.x.l.a.y.8.8.:.2.2.2.2.2.6.9.X.x y f w 6 j l j i x Z ! C x l C T T T H T T C F C L C F m g g m u 5 3 5 q q q e w e t E E e V c c 9 9 0 9 9 9 ",
"A.A.S.n.j.j.N.B.V.c.y.:.X.' ' ' X.] ( ~ J F x x B f a l f l Q ` A w e q m y m C C Z C C C T C m b b b b m b g 9 - & = < 5 5 q 5 q w v l E H i m 0 9 9 9 9 9 9 9 ",
"e.s.s.0.>.$.3.w.y.8.:.| K h h h S j h w 6 2 ; - w k l m Z Z Z E # # : @ X . 1 W N Z Z N N Z N l g l g g m B 7 * O @ - 3 7 9 c r e e m N V N 9 e c u 9 r 9 9 9 9 ",
"w.t.e.1.( / ( } ' ] ] ' J 0 6 0 8 8 w s h k k f y B m l C i : & t i v e p q 1 = v N Z v l N N m l B g i m n =   * < e u y 9 e c H p l p i l u 0 c p 9 r 9 9 3 9 ",
"_ R L F B d 8 2 2 6 8 y f d B B l v N C C v v N p v v v q # O o q & & q v q # # M M B m m l l b B M m m m i : @ < 7 y p m B M B m p u p g p g u 0 b b 9 9 9 9 9 ",
"9 4 7 7 y y 7 7 9 i i g g g g m l i i v N N v t t v v q & @ & q & O o q q @ # t M M m m m l g B g g g m B M p 7 B C Z H H Z V b B g d g x g g u c 0 c 9 9 9 0 9 ",
"y e y i g g g g d g g g p g l m v v v v v N v t v t : = : q v A v q q v e q p ! M m m m g m g g g m g g g m M b P P P H C b g u g g g g b b p u 9 0 9 9 9 9 9 9 ",
"m g g g m g p d u p g p p p l l i v v p i v v v t q # q N A W A A N N N v A ! A m m m g g b g m g m m g g B M V b b b m b g u i p d i u p p u y b 9 9 9 9 9 9 9 ",
"g i i f u p i i i y y i i i f p i p v p t v t t < q t v A A W A v p N N l E E p m c l m g g g g g m m g m C H P g g g g b m m b p p y y r c r r 0 9 9 c 9 9 9 9 ",
"i p u g p g g g i i u u l p p i p i t v N v q = q q Z A A A A N Z N A %.W N m C l m g g g g g k g m m l g m B b g g g g g g g g g p i i r q r c b 9 9 0 c 0 9 9 ",
"e u u p i e e e u i u g v p i w v t t v v q = = t v N Z A A N t Z Z A E A t t C m p g g g p g g m B g g p p u y g p p p i p p p p p p p t t t t c c 9 c 9 9 9 9 ",
"i p p g g g i p y e i p v v p i i i v v q # = t v N N Z N Z N t t N p e v p t v p g p g p g g g g g g p g B m g l g g g g g b m i p p p p t t t 9 9 9 9 9 9 9 c ",
"u p i p e e i y v i i v i v v v i N t p q & q v t v A A N v p v v t v v v v l l p v l v g p g g p g p g g g g g p i y g g g g m c c c c c c t r r r r r r r r 5 ",
"i i i i i i y i i v i i v i v v p N t v q 1 i v A A Z v v v t v t v t v p v v v l v p i u p g g g g g g g g p u g p p m m g g g r c r c c c t t r r 9 r r r r r ",
"r t t t t t e r t t t t p i v i t v t v v t A W ! A v t t v t v v t v v v v f v m p i i p g g u g g g g p g p g b g g m m g p g r r r c t c t c r 5 r 5 5 r r 5 ",
"p e t t t i t e t t t t i v v v v t t t i v N A N v q q t t v t t t v p v p v v p p p k b g f y g g g p g i g u g g p l m g u i r c r c t t t t r 9 5 5 5 5 5 r ",
"t t t t t t p t t i t t t t t v v t t t t t q t t q t t t t t c v t t v v t v v i p g g p p g b g g p p f p p p i p i g g g p i c r c r r r r r r 5 5 5 5 r 5 5 ",
"p t e t p p t t t i t t t i i i t q t t t t q q q q t t t t c v v t v t v t p p p p g i i u B H p g g p p p g g f u g g g m b p r c r c r r r r r r r 5 5 r r 5 ",
"v t t t t v p t t v t t i t t t q q i t q v t i t t t t t t v v t v t v t t v p g p g p d g m C g g i i u g g b u p i i p g g p r r r r r r r r r r 5 r r r 5 r ",
"v t t t v v v p t t t t t t q t v q i q q t 1 t t q t t t v t c t t v t v t t t p p p l M B g p i u i i p p g g i p y 9 y p g i r r r r r r r r r 5 r r r r r 5 ",
"t p v p 9 b c c 0 c 0 c c b c 9 p e e e e e q e e q q r q t c c v v t i t t i t p t p t t t t p g c c p p c c p c r r r r t p m M c 9 9 c 9 c r 9 9 r r r 5 5 5 ",
"v p b g b b c b 0 c c c c 9 c 0 p e e e 9 e e q q 5 q c c c c v v v t i t t t t p t p t t p t p p p p p c p t r p r t q e t c v c c 9 c c 9 9 9 9 9 5 r r r 5 r ",
"g b b b b c b b c c 9 0 0 c c 0 t e e e e e 9 e q q r c c c c c t t t e t t t t p t t t p t p p p t r r t p r t r r q r r t t c c 9 c 9 9 c 9 c r r r r r r r r ",
"b c b p b c d c c 0 b c b c c 9 t y e e e e 9 9 r r t c c c c c p t t t i t t t t v p t t p t p r r r r t r r r e r r r r r t t c 9 9 9 9 9 9 9 r r r r r r 5 r ",
"p c u g c c d 9 0 b 9 c c 9 c 0 t t e e e q q q q c c c c r c q t t e e t t t t t t v t t t p p t q q r r r q r r q r r t t r p 9 9 9 c c 9 9 c r r r r r r r r "
};
